<?xml version="1.0" encoding="UTF-8"?>
<svg id="Calque_1" data-name="Calque 1" xmlns="http://www.w3.org/2000/svg" viewBox="0 0 124.21 99.7">
  <defs>
    <style>
      .cls-1 {
        fill: #fff;
        stroke-width: 0px;
      }
    </style>
  </defs>
  <path class="cls-1" d="M58.64,7.96c-6.84-.9-13.72-1.42-20.61-1.51s-13.56-.09-20.02,1.63c-5.57,1.48-10.71,4.46-14.16,9.15C.15,22.26-.14,28.71.04,34.71c.42,13.57,2.06,27.12,4.84,40.41.69,3.29,1.45,6.57,2.28,9.82s1.49,6.43,2.66,9.45c.56,1.44,1.41,2.71,2.83,3.42s3.14.73,4.74.78c3.49.11,6.99.21,10.48.31,13.98.38,27.96.61,41.94.72,6.99.05,13.98.07,20.97.05,6.55-.02,13.47.42,19.82-1.51,5.43-1.65,10.25-5.18,12.4-10.55,2.31-5.78.82-12.27-.52-18.09-3.07-13.3-5.53-26.74-7.26-40.27-.79-6.21-.82-13.11-4.44-18.49-3.07-4.55-7.84-7.61-13.01-9.28-6.18-1.99-12.8-1.67-19.14-.77-6.84.97-13.62,2.46-20.41,3.75-3.44.65-6.87,1.31-10.31,1.96-1.33.25-2.08,1.85-1.75,3.08.38,1.39,1.74,2,3.08,1.75,6.55-1.25,13.09-2.5,19.64-3.74s12.48-2.57,18.84-2.51c5.13.05,10.18,1.2,14.47,4.1,1.85,1.25,3.49,2.88,4.66,4.79,1.48,2.42,2.09,5.19,2.47,7.97.86,6.24,1.53,12.49,2.49,18.72s2.15,12.88,3.45,19.27c.65,3.2,1.34,6.39,2.07,9.57.62,2.72,1.33,5.44,1.67,8.21.61,5.06-.26,10.06-4.61,13.21s-10.35,3.71-15.79,3.79c-6.43.1-12.86.06-19.29.04-13.32-.04-26.63-.2-39.95-.49-6.49-.14-12.98-.31-19.47-.51-.83-.03-1.66-.05-2.5-.08-.65-.02-1.46.07-2.09-.1-.87-.23-.94-1.24-1.16-2.01-.9-3.07-1.74-6.16-2.51-9.27-3.03-12.22-5.06-24.67-6.03-37.22-.25-3.19-.42-6.39-.54-9.59-.1-2.82-.2-5.71.24-8.51.81-5.08,3.63-9.02,8.06-11.59,4.96-2.87,10.8-3.55,16.42-3.77,6.43-.25,12.89-.09,19.3.41,3.19.25,6.37.59,9.55,1.01,1.34.18,2.5-1.28,2.5-2.5,0-1.5-1.16-2.32-2.5-2.5h0Z"/>
  <path class="cls-1" d="M54.47,10.92c3.22,0,3.22-5,0-5s-3.22,5,0,5h0Z"/>
  <path class="cls-1" d="M44.56,27.42c9.29-8.73,23.06-4.02,32.73,1.3,2.12,1.16,4.01-2.07,1.89-3.24-6.15-3.38-12.79-6.27-19.89-6.62-6.29-.32-12.74,1.54-17.38,5.91-1.76,1.66.89,4.3,2.65,2.65h0Z"/>
  <path class="cls-1" d="M34.49,22.41c5.56,6.27,12.1,11.69,19.3,15.99,1.8,1.07,3.63,2.07,5.51,3s3.92,2.23,5.96,2.26c2.27.04,3.98-1.7,5.65-3,1.96-1.53,3.93-3.06,5.89-4.59,4.45-3.47,8.9-6.94,13.35-10.4.81-.63.65-1.99,0-2.65-.78-.8-1.86-.62-2.65,0-3.6,2.8-7.2,5.61-10.8,8.41-1.83,1.43-3.67,2.86-5.5,4.28-.85.66-1.7,1.33-2.55,1.99s-1.72,1.54-2.69,2.01c-1.32.64-3.59-.96-4.78-1.55-1.75-.86-3.47-1.79-5.15-2.79-3.28-1.94-6.44-4.1-9.4-6.5-3.41-2.77-6.58-5.82-9.5-9.11-1.6-1.81-4.25.85-2.65,2.65h0Z"/>
  <path class="cls-1" d="M48.31,32.2c-2.46-.17-4.7,1.54-5.76,3.66-.56,1.12-.89,2.3-1.13,3.52s-.53,2.46-.4,3.69c.28,2.61,2.35,4.41,4.8,5.06,2.3.62,4.8.17,6.72-1.24,1.11-.81,2.05-1.77,3.08-2.67.82-.71,1.78-1.35,2.89-1.34,2.41.04,2.41-3.71,0-3.75-2.8-.04-4.85,1.78-6.77,3.57-1.61,1.49-3.2,2.39-5.25,1.71-.66-.22-1.48-.69-1.68-1.36-.28-.89.12-2.16.31-3.06.22-1.02.48-2.16,1.11-3,.58-.77,1.28-1.11,2.09-1.05,1.01.07,1.88-.91,1.88-1.88,0-1.07-.86-1.8-1.88-1.88h0Z"/>
  <path class="cls-1" d="M62.91,43.32c1.78,3.55,5.59,6.08,9.61,5.97s8.04-2.83,9.12-6.94c.6-2.28.31-4.72-.83-6.78s-4.41-.22-3.24,1.89c1.59,2.86.04,6.62-3.1,7.7-3.33,1.14-6.71-.52-8.32-3.73-.45-.91-1.73-1.16-2.57-.67-.92.54-1.13,1.66-.67,2.57h0Z"/>
  <path class="cls-1" d="M55.57,41.02l-1.87,6.56c-.52,1.83-.85,4.05-1.97,5.63-1.87,2.63-5.96,2.08-8.71,1.67-.84-.12-1.66.08-2.12.86-.39.67-.34,1.74.29,2.27,3.5,2.92,7.51,5.26,10.71,8.54,2.77,2.83,4.98,6.88,3.94,10.93l3.68.5c.45-3.59,2.56-6.71,4.99-9.27,1.33-1.39,2.77-2.67,4.26-3.89,1.4-1.14,2.99-2.13,4.31-3.37,1.49-1.4,1.96-3.42.74-5.15-.61-.86-1.51-1.47-2.23-2.23-.6-.62-1.15-1.28-1.63-1.99-2.06-3.04-3.11-6.73-2.14-10.35.62-2.33-2.99-3.33-3.62-1-1.02,3.82-.39,7.76,1.36,11.26.86,1.73,2.03,3.33,3.38,4.72.35.36.73.7,1.1,1.04.14.13.77.79.78.62-.04.47-1.41,1.22-1.74,1.47-6.12,4.64-12.29,10.06-13.31,18.12-.27,2.12,3.17,2.5,3.68.5,1.25-4.86-.71-9.65-3.81-13.38-3.29-3.95-7.9-6.48-11.8-9.74l-1.82,3.13c3.99.59,8.82,1.03,11.93-2.11,1.65-1.67,2.27-3.97,2.9-6.17l2.33-8.2c.66-2.33-2.96-3.32-3.62-1h0Z"/>
  <path class="cls-1" d="M37.9,29.86c-3.03,7.58-4.87,15.58-5.5,23.71-.53,6.84.4,14.56-3.82,20.45-.91,1.27.62,3.36,2.12,2.75,3.4-1.39,6.58-3.14,9.49-5.38l-2.57-.67c1.26,2.7,2.52,5.41,3.78,8.11.51,1.09,2.17,1.2,2.94.38l2.74-2.91c.78-.83,1.64-2.12,2.62-2.7l-.95.26.35-.02-.95-.26-.22-.27c.09.17.17.34.24.52.17.38.33.76.5,1.14.3.68.6,1.37.9,2.05.64,1.44,1.27,2.89,1.91,4.33,1.27,2.89,2.54,5.78,3.81,8.67.56,1.27,2.65,1.18,3.24,0,1.15-2.33,2.53-4.53,4.22-6.5.83-.97,1.71-1.89,2.65-2.75.49-.45,1-.9,1.52-1.32.19-.15.38-.3.57-.45-.01,0,.81-.54.56-.53l-.95-.26c.39.18,1.15,1.63,1.52,2.18.6.89,1.2,1.79,1.81,2.68.65.96,2.08,1.32,2.94.38,2.9-3.13,5.8-6.25,8.69-9.38h-2.65c2.2,2.24,4.39,4.47,6.59,6.71,1.58,1.61,3.78-.42,2.94-2.27-3.17-7.01-5.46-14.59-5.8-22.31-.17-3.79.14-7.55,1-11.24s2.02-7.62,1.34-11.55c-.62-3.56-2.84-6.73-6.31-7.94-2.28-.79-3.27,2.83-1,3.62,3.78,1.32,4.1,6.31,3.54,9.6-.42,2.46-1.17,4.85-1.62,7.3-.42,2.27-.67,4.58-.74,6.89-.27,9.54,2.44,18.9,6.34,27.53l2.94-2.27c-2.2-2.24-4.39-4.47-6.59-6.71-.69-.7-1.97-.74-2.65,0-2.9,3.13-5.8,6.25-8.69,9.38l2.94.38c-.74-1.1-1.48-2.2-2.22-3.3-.65-.97-1.26-2.26-2.32-2.85-2.08-1.15-4.35,1.28-5.78,2.54-3.34,2.94-6.09,6.57-8.06,10.56h3.24c-2.14-4.87-4.28-9.73-6.42-14.6-.46-1.05-.81-2.36-1.81-3.04s-2.29-.41-3.21.35c-.98.81-1.81,1.88-2.68,2.81l-2.74,2.91,2.94.38c-1.26-2.7-2.52-5.41-3.78-8.11-.39-.84-1.81-1.25-2.57-.67-2.64,2.03-5.51,3.75-8.59,5l2.12,2.75c4.35-6.07,3.82-13.86,4.24-20.95.49-8.27,2.39-16.42,5.46-24.11.38-.95-.41-2.05-1.31-2.31-1.06-.3-1.93.37-2.31,1.31h0Z"/>
</svg>