<?xml version="1.0" encoding="UTF-8"?>
<svg id="Calque_2" data-name="Calque 2" xmlns="http://www.w3.org/2000/svg" viewBox="0 0 494.94 458.81">
  <defs>
    <style>
      .cls-1 {
        fill: #000;
      }

      .cls-1, .cls-2, .cls-3, .cls-4, .cls-5, .cls-6, .cls-7, .cls-8, .cls-9, .cls-10, .cls-11 {
        stroke-width: 0px;
      }

      .cls-12, .cls-13, .cls-14, .cls-15, .cls-16, .cls-17 {
        stroke-miterlimit: 10;
      }

      .cls-12, .cls-13, .cls-16, .cls-17 {
        stroke-width: 3px;
      }

      .cls-12, .cls-14, .cls-15, .cls-16, .cls-17 {
        stroke: #000;
      }

      .cls-12, .cls-9 {
        fill: #fff;
      }

      .cls-2, .cls-15 {
        fill: #61a3d9;
      }

      .cls-13 {
        stroke: #040505;
      }

      .cls-13, .cls-14, .cls-17 {
        fill: none;
      }

      .cls-3 {
        fill: #010101;
      }

      .cls-4 {
        fill: #e6af09;
      }

      .cls-5 {
        fill: #f5d47d;
      }

      .cls-14 {
        stroke-width: 4px;
      }

      .cls-6 {
        fill: #417abe;
      }

      .cls-7 {
        fill: #bbbcbf;
      }

      .cls-8 {
        fill: #3d3d3d;
      }

      .cls-10 {
        fill: #606aaf;
      }

      .cls-16 {
        fill: #212043;
      }

      .cls-11 {
        fill: #e5e0d1;
      }
    </style>
  </defs>
  <g>
    <path class="cls-2" d="M109.86,36.45s-51.63,28.75-70.45,50.75c-15.01,22.78-37.59,52.29-31.06,68.15s9.99,29.94,22.97,40.9l13.17,11.14s4.64,13.95,35.43,17.84c30.79,3.89,29.93,5.3,29.93,5.3,0,0,32.83,1,62.49,22.61l23.31,13.16s15.76,8.68,18.23,12.91l2.48,4.23s9.07,10.92,23.81,10.94c11.21-2.62,54.05-18.69,54.05-18.69,0,0,31.35-11.31,33.25-22.57l4.29-10.74s2.02-7.58-4.29-20.33-12.46-27.08-53.66-77.15c0,0-23.85-27.68-26.29-47.76,0,0,5.6-22.96-32.92-40.98-38.53-18.02-32.48-21.8-104.75-19.72Z"/>
    <path class="cls-10" d="M21.99,137.24c11.55,1.76,18.65-1.84,32.64,4.21,13.98,6.05,24.76-1.32,30.99,11.15,6.24,12.47,2.83,25.51,0,30.61s-4.54,10.2-7.94,10.77-17.03,13.61-22.12,14.17-13.63-.02-21.47-9.07-48.37-67.36-12.1-61.85Z"/>
    <path class="cls-2" d="M198.81,268.06s-60.35,41.42-94.72,107.72c0,0-28.17,61.91-22.73,62.26s164.97,9.84,232.98,9.34,147.57-5.16,159.81-7.35l12.25-2.19s7.44-1.42,6.91-3.48-19.74-48.12-32.32-67.11c-10.03-19.7-24.56-46.44-38.1-59.83l-13.54-13.39-79.49-69.91s2,10.99,2.17,13.84-3.43,22.34-28.28,34.16c-29.19,5.61-50.56,19.36-54.25,20.24s-26.54-.24-33.15-6.76,2.4-10.45-17.55-17.56Z"/>
    <path class="cls-13" d="M197.85,269.46s-87.31,52.95-117.92,168.49c0,0,329.2,22.56,413.29-2.1,2.03-.6-10.77-29.48-10.77-29.48l-22.68-41.39c-20.13-42.24-32.6-53.57-47.34-68.03s-84.95-74.9-84.95-74.9"/>
    <path class="cls-13" d="M212.59,275.69s-39.12-21.54-51.02-28.91c-11.91-7.37-28.91-13.89-44.5-16.72-15.59-2.83-57.83-4.25-66.05-15.59s-30.33-23.81-30.9-31.18c-.57-7.37-19.28-29.2-10.77-46.49s22.11-37.42,24.38-43.37c2.27-5.95,65.54-56.13,76.14-56.98s60.49-1.98,70.7,3.12,58.96,23.53,64.63,46.77.85,22.11,28.06,57.83c27.21,35.72,34.58,38.27,43.09,55.56s18.14,33.45,15.87,41.1-5.1,24.38-37.98,34.87-49.89,22.68-62.36,17.57-16.16-7.94-19.28-17.57Z"/>
    <path class="cls-12" d="M13.53,112.98s-5.19,12.09,16.78,12.28,23.67-5.32,21.02-9.28-7.94-23.79-37.8-3.01Z"/>
    <circle class="cls-1" cx="27.42" cy="116.08" r="6.52"/>
    <path class="cls-12" d="M81.21,121.12s-5.19,12.09,16.78,12.28,23.67-5.32,21.02-9.28-7.94-23.79-37.8-3.01Z"/>
    <circle class="cls-1" cx="94.38" cy="124.52" r="6.52"/>
    <path class="cls-16" d="M32.11,146.36c3.43,3.43,6.24,5.1,7.37,11.97s1.13,10.71-3.4,15.81-13.89,2.97-19.56,2.4c-5.67-.57-6.71-1.17-9.33-5.23-2.16-3.35-5.7-8.5-5.7-17.01s7.55-11.94,12.85-12.85c0,0,14.31,1.46,17.76,4.91Z"/>
    <path class="cls-16" d="M20.18,166.21s2.56,11.52,14.49,21.83"/>
    <path class="cls-1" d="M27.58,155.15c-1.7,0-6.14,3.15-3.21,7.53s3.69,10.33,6.43,4.1,1.61-10.2,1.61-10.2l-4.82-1.42Z"/>
    <path class="cls-1" d="M13.14,155.15c1.7,0,6.14,3.15,3.21,7.53s-3.69,10.33-6.43,4.1-1.61-10.2-1.61-10.2l4.82-1.42Z"/>
    <path class="cls-1" d="M27.42,192.91c3.22-3.33,7.67-5.27,12.15-6.3.41-.12.83-.28,1.02-.42.1-.07.08-.11-.03.02-.02.04-.03.04-.04.05.14-.45.42-.84.92-1.07.78-.35,1.52-.03,2.16.15,3.21,1.04,8.94,2.96,12.15,4,7.74,2.45,15.48,5.44,22.44,9.72,2.31,1.27,3.78,2.7,5.69,2.22.99-.34,1.95-.82,2.9-1.38,3.28-1.88,6.55-3.91,9.04-6.82,2.58-2.85,4.37-6.33,5.63-10,.51-1.41.89-2.88,1.4-4.31.19-.45.33-1.03.81-1.29-.21.16-.25.42-.31.65-.29,1.74-.28,3.51-.55,5.27-.79,6.27-3.78,12.29-8.68,16.47-2.51,2.09-4.98,4.01-7.94,5.44-.57.27-1.26.51-1.88.62-3.18.77-6.1-1.26-8.59-2.62-10.65-6.31-22.62-9.81-33.72-15.25.38.06,1.01-.19,1.25-.59.1-.16.07-.11.11-.23-.07.16-.13.29-.24.47-1.13,1.56-2.92,1.45-4.52,1.67-3.88.37-7.78,1.54-11.16,3.54h0Z"/>
  </g>
  <path class="cls-6" d="M117.06,230.06s24.34-12.67,35.74-11.05c11.4,1.62,10.53,5.16,24,11.05s20.92,2.17,24.28,11.68,3.01,7.76,7.44,13.46,7.84,6.82,7.83,11.93,3.4,11.91,3.4,11.91v3.97s-79.55-54.85-102.71-52.94Z"/>
  <path class="cls-1" d="M57.84,93.8c6.16,2.86,10.73,9.36,10.67,16.32.05,3.32-.06,6.65-.29,9.96-.28,3.32-.57,6.6-1.14,9.93l-2.89-.66c2.41-7.55,9.31-27.53,17.71-29.16-6.8,2.46-12.56,23-14.87,29.99,0,0-2.88-.66-2.88-.66.98-7.17,1.93-14.5,1.92-21.76-.42-5.63-3.74-10.54-8.23-13.96h0Z"/>
  <path class="cls-1" d="M56.77,209.27c2.82,1.3,6.91,3.27,9.78,4.27,3.37,1.29,6.6,1.9,10.24,2.53-6.99,3.42-16.24-.25-20.02-6.8h0Z"/>
  <path class="cls-1" d="M91.64,103.64c2.52-5.13,8.7-7.53,14.18-6.79,1.8.24,3.73.89,5.41,1.57,5.45,2.65,9.7,7.22,13.92,11.46,0,0,.4.39.4.39.09.09-.11.03-.14.08-.18.05-.34.29-.29.46.05.19.06.03-.01-.11-.15-.37-.38-.75-.59-1.14.53.28,1.08.47,1.48.98.13.22.04.56-.19.69-.44.21-.95-.07-1.35-.15-4.81-1.61-8.93-4.59-13.27-7.07-6.2-3.63-13.24-4.06-19.55-.36h0Z"/>
  <path class="cls-1" d="M33.72,93.43c2.87-3.78,9.13-3.16,12.37-.11,1.52,1.31,2.87,2.83,3.97,4.53,1.07,1.72,1.97,3.61,2.21,5.79-1.94-.98-3.54-2.01-5.08-3.11-2.85-1.88-5.03-4.52-8.16-5.89-1.44-.63-3.15-1.05-5.3-1.21h0Z"/>
  <path class="cls-2" d="M142.67,47.44s21.26-9.35,37.42-28.06,25.27-26.36,30.07,0-13.47,73.19-13.47,73.19"/>
  <path class="cls-2" d="M188.59,47.44s21.26-9.35,37.42-28.06c16.16-18.71,25.27-26.36,30.07,0s-13.47,73.19-13.47,73.19"/>
  <path class="cls-14" d="M160.18,37.16S193.36,5.55,194.72,4.68s7.1-4.76,9.73-.6,7.33,14.19,6.5,29.49c0,0,26.36-25.62,32.7-30.58s13.65,9.95,13.22,22.44c-.4,12.05-4.37,46.93-12.9,63.44"/>
  <path class="cls-14" d="M210.95,33.56s-5.74,10.19-19.72,18.89"/>
  <path class="cls-1" d="M271.36,123.48c-3.27,4.73-8.98,7.69-14.74,7.57,3.26-4.75,8.99-7.67,14.74-7.57h0Z"/>
  <path class="cls-1" d="M281.09,135.32c-3.27,4.73-8.98,7.69-14.74,7.57,3.26-4.75,8.99-7.67,14.74-7.57h0Z"/>
  <path class="cls-1" d="M288.46,147.58c-3.27,4.73-8.98,7.69-14.74,7.57,3.26-4.75,8.99-7.67,14.74-7.57h0Z"/>
  <path class="cls-1" d="M295.83,159.84c-3.27,4.73-8.98,7.69-14.74,7.57,3.26-4.75,8.99-7.67,14.74-7.57h0Z"/>
  <path class="cls-1" d="M303.2,169.47c-3.27,4.73-8.98,7.69-14.74,7.57,3.26-4.75,8.99-7.67,14.74-7.57h0Z"/>
  <path class="cls-1" d="M314.92,180.46c-3.27,4.73-8.98,7.69-14.74,7.57,3.26-4.75,8.99-7.67,14.74-7.57h0Z"/>
  <path class="cls-1" d="M326.54,196.18c-3.27,4.73-8.98,7.69-14.74,7.57,3.26-4.75,8.99-7.67,14.74-7.57h0Z"/>
  <path class="cls-1" d="M179.33,251.41c-3.27,4.73-8.98,7.69-14.74,7.57,3.26-4.75,8.99-7.67,14.74-7.57h0Z"/>
  <path class="cls-1" d="M167.55,241.74c-3.27,4.73-8.98,7.69-14.74,7.57,3.26-4.75,8.99-7.67,14.74-7.57h0Z"/>
  <path class="cls-1" d="M150.04,234.16c-3.27,4.73-8.98,7.69-14.74,7.57,3.26-4.75,8.99-7.67,14.74-7.57h0Z"/>
  <path class="cls-1" d="M131.28,225.4c-1.51,5.55-5.91,10.24-11.38,12.05,1.49-5.56,5.92-10.23,11.38-12.05h0Z"/>
  <path class="cls-1" d="M112.28,222.06c-1.51,5.55-5.91,10.24-11.38,12.05,1.49-5.56,5.92-10.23,11.38-12.05h0Z"/>
  <path class="cls-1" d="M92,220.31c.79,5.73-1.4,11.71-5.73,15.55-.81-5.74,1.41-11.7,5.73-15.55h0Z"/>
  <path class="cls-1" d="M60.7,216.36c.79,5.73-1.4,11.71-5.73,15.55-.81-5.74,1.41-11.7,5.73-15.55h0Z"/>
  <path class="cls-1" d="M52.64,207.45c-3.27,4.73-8.98,7.69-14.74,7.57,3.26-4.75,8.99-7.67,14.74-7.57h0Z"/>
  <path class="cls-1" d="M21.26,131.67c-5.3,2.33-11.64,1.88-16.53-1.23,5.29-2.35,11.63-1.86,16.53,1.23h0Z"/>
  <path class="cls-1" d="M56.3,79.98c-5.49,1.83-11.76.78-16.34-2.77,5.49-1.85,11.76-.76,16.34,2.77h0Z"/>
  <path class="cls-1" d="M66.78,70.94c-5.75-.07-11.4-3.16-14.51-8,5.76.05,11.38,3.18,14.51,8h0Z"/>
  <path class="cls-1" d="M78.64,62.94c-5.75-.07-11.4-3.16-14.51-8,5.76.05,11.38,3.18,14.51,8h0Z"/>
  <path class="cls-1" d="M91.64,51.46c-5.75-.07-11.4-3.16-14.51-8,5.76.05,11.38,3.18,14.51,8h0Z"/>
  <path class="cls-1" d="M101.63,47c-5.75-.07-11.4-3.16-14.51-8,5.76.05,11.38,3.18,14.51,8h0Z"/>
  <path class="cls-1" d="M132.06,43.34c-4.5-3.64-7-9.49-6.47-15.26,4.51,3.63,6.98,9.49,6.47,15.26h0Z"/>
  <path class="cls-1" d="M150.04,39c-4.5-3.64-7-9.49-6.47-15.26,4.51,3.63,6.98,9.49,6.47,15.26h0Z"/>
  <path class="cls-9" d="M81.62,66.94c3.72-.53,7.44.46,10.91,1.81,1.75.77,3.47,1.55,5.18,3.23.63.57,1.37,1.7,1.62,2.68.29,1.15.57,2.33.81,3.48,0,0-4.97-1.45-4.97-1.45,1.07-1.18,2.05-2.1,3.18-3.02,5.49-4.62,13.36-7.79,20.46-5.12,1.21.36,7.83,2.74,6.8,4.25.08-.17-.02-.29-.14-.37-2.26-.8-4.84-.41-7.22-.55-7.23-.43-13.7,4.07-18.84,8.74,0,0-4.13,3.91-4.13,3.91-.32-2.23-1.07-6.48-1.27-8.66-.23-1.04-2.11-2.47-3.5-3.55-2.78-2.03-5.68-3.96-8.91-5.39h0Z"/>
  <path class="cls-10" d="M207.01,56.16s29.56-44.64,36.52-42.37,5.91,12.36,5.22,24.12c-.7,11.75-5.22,24.04-6.61,31.99s-1.39,11.07-6.61,10.05-28.87-20.89-28.52-23.78Z"/>
  <path class="cls-9" d="M81.02,146.1c5.41,5.97,11.7,20.69,5.14,27.48,1.47-4.67,0-9.15-1.12-13.68-1.27-4.62-2.86-9.08-4.02-13.8h0Z"/>
  <path class="cls-9" d="M140.2,145.72c5.41,5.97,11.7,20.69,5.14,27.48,1.47-4.67,0-9.15-1.12-13.68-1.27-4.62-2.86-9.08-4.02-13.8h0Z"/>
  <path class="cls-1" d="M180.03,346.26c13.24,5.92,26.65,10.41,40.92,11.01,1.42-.04,3.42-.02,4.82-.03,4.2-.29,8.47-.8,12.67-1.1,6.99-.55,14.02-.82,21.2-.25l.08.49-10.3,1.87c-3.47.61-12.13,2.11-15.47,2.7-2.3.45-5.49.82-7.81,1.11-1.52.09-3.73.11-5.28.17-11.46-.32-22.62-3.92-32.5-9.62-3.01-1.79-5.94-3.73-8.65-5.98l.32-.38h0Z"/>
  <path class="cls-1" d="M295.98,353.9c13.73,4.78,27.56,8.14,41.85,7.2,1.19-.16,3.6-.44,4.79-.56,4.15-.78,8.33-1.8,12.48-2.61,6.9-1.4,13.89-2.52,21.11-2.83l.14.48c-5.02,1.57-15.09,4.66-20.12,6.15-1.7.51-5.92,1.78-7.55,2.28-1.29.32-3.87.96-5.15,1.27-1.31.19-3.94.58-5.25.75-11.49.92-23.02-1.66-33.41-6.51-3.18-1.52-6.27-3.22-9.18-5.23l.29-.41h0Z"/>
  <path class="cls-6" d="M179.33,343.84s14.35,11.91,20.4,12.09,47.81,3.4,57.26,0,9.26-11.72,9.83-13.8-3.4-4.54-20.98-4.54-35.34,8.88-50.27,3.97-16.24,2.27-16.24,2.27Z"/>
  <path class="cls-6" d="M306.7,347.25c-5.16,1.32-16.44,4.64-8.88,6.86s6.43,3.35,18.33,5.05,11.53,4.64,22.49,2.6,6.99-1.28,19.09-3.55,16.63-.57,17.39-5.57-36.66-13.51-68.41-5.39Z"/>
  <path class="cls-1" d="M277.17,436.83c.97-.73,1.6-1.96,1.89-3.07.13-.53.04-.98-.15-1.08-.25-.24-1.36-.33-1.83-.3-1.98.12-4.46.12-6.16,1.05.04-.03.1-.33.06-.34.18.52,1.43,1.42,2.07,1.91,1.47,1.08,3.09,2.28,4.66,3.2,1.09.6,2.18,1.35,3.48,1.34-.58.37-1.34.39-2.01.36-3.47-.08-15.74-5.21-9.41-9.26,2.64-1.14,4.83-.97,7.43-.76,1,.16,2.15.39,2.9,1.14,2.06,2.13-.62,5.39-2.92,5.81h0Z"/>
  <path class="cls-1" d="M217.17,347.1c1.58-.75,3.61.35,4.25,1.84.28.83.42,1.93.69,2.78-1.64-.72-3.41-.51-4.95.46,0,0-4.19,2.39-4.19,2.39,0,0,3.45-4.87,3.45-4.87.34-.48.76-.82,1.21-1.14,1.46-.96,3.11-1.52,4.91-1.45,0,0,.16.25.16.25-.88,2.14-2.57,3.95-4.8,4.59,0,0-.74-2.48-.74-2.48,1.3.79,2.7,1.11,4.13.75,0,0-.52.91-.52.91-.35-.28-.85-.48-1.23-.71-.76-.45-1.12-1.15-1.6-1.84-.22-.36-.45-.72-.81-1.2l.05-.3h0Z"/>
  <path class="cls-1" d="M334.72,348.89c1.58-.75,3.61.35,4.25,1.84.28.83.42,1.93.69,2.78-1.64-.72-3.41-.51-4.95.46,0,0-4.19,2.39-4.19,2.39l3.45-4.87c.34-.48.76-.82,1.21-1.14,1.46-.96,3.11-1.52,4.91-1.45,0,0,.16.25.16.25-.88,2.14-2.57,3.95-4.8,4.59,0,0-.74-2.48-.74-2.48,1.3.79,2.7,1.11,4.13.75,0,0-.52.91-.52.91-.35-.28-.85-.48-1.23-.71-.76-.45-1.12-1.15-1.6-1.84-.22-.36-.45-.72-.81-1.2l.05-.3h0Z"/>
  <path class="cls-17" d="M114.77,229.68s27.92,4.28,49.83,19.63c19.05,10.42,47.62,27.47,50.32,32.04"/>
  <path class="cls-15" d="M55.95,372.57s-15.45-4.17-13.94,1.88,19.12,5.29,19.12,5.29c0,0-21.22,1.37-19.23,4.46s13.56-1.21,15.9,0-19.58,6.12-14.29,7.25,18.56-2.65,18.56-2.65l36.62-9.07v-14.19l-42.75,7.01Z"/>
  <g>
    <path class="cls-4" d="M78.13,276.9s1.28,31.38-1.79,37.85c-3.08,6.47-8.2,13.65-7.69,21.59.51,10,0,65.63,0,65.63,0,0-.75,5.64,9.75,5.64s21.78,1.28,24.86,0c3.08-1.28,6.41-2.82,6.41-5.9v-67.42s-.77-6.92-3.08-10.77-4.87-4.1-4.87-24.35-1.11-22.13-1.11-22.64-22.05-3.54-22.47.37Z"/>
    <path class="cls-4" d="M87.28,243.63s-9.31,1.45-8.8,5.64,3.87,1.74,5.06,1.54,15.28.6,16.22,1.11,3.5-.85,2.05-3.08-1.79-6.49-14.53-5.21Z"/>
    <path class="cls-9" d="M71.1,334.75s34.64.85,36.29.28.97,53.21-.11,53.72-35.83,1.94-36.17,0-2.45-47.45,0-54Z"/>
    <path class="cls-11" d="M80.78,251.92s-1.97,0-1.79,1.54,2.05,2.39,1.79,3.33-3.25,16.54-2.65,20.11,4.36-3.79,22.47-.37c0,0-1.71-18.12-1.2-19.23s1.11-1.11,1.2-2.14-.17-2.82-.85-3.25-14.78-3.16-18.97,0Z"/>
    <path class="cls-8" d="M108.08,360.78s-34.91.51-38.07-.26c0,0,.58,27.83,1.08,28.23s11.05,2.68,36.17,0c0,0,1.88-24.72.81-27.97Z"/>
    <path class="cls-7" d="M87.79,348.38l.31-.34c.23-.26.49-.29.49-.29.43-.08.7.26.7.26v-.22h.38v-.22l1.41-.74v.99h.58v.25l.6-.36.68.44.65-.47c.58.54,1.11.64,1.11.64v.08c.53-.2,1.23-.85,1.23-.85,1.02.68,1.59.79,1.59.79v2l.36-.17.05.57-.85.64c-.45.01-.77-.37-.77-.37l-.61.36c-.63-.47-1.73-.67-1.73-.67l.41-.49v-1.15s-.3.29-1.14.12v1.06l.47.14-1.27,1.03-.92-.71s-1.08.69-1.1.66-.8-.64-.8-.64c0,0-.32.64-.87.64,0,0-.62.02-.97-.5l-.38-.49-.74.81s-.15.19-.45.05c0,0-.3-.08-.48-.49,0,0-.37.54-.58.65,0,0-2.25-.52-3.2-.08,0,0-.52-.35.13-.96v-3.09l-.14.06-.44-.52,1.09-1.2s1.87.49,3.71-.02c0,0-.42.98-1.2,1.51h-1.49v.43s.25-.09.71.02c.45.11.73-.05.86-.22,0,0,.34.24.16.89,0,0-.19.79-1.72.5v1.14s.39-.07.92.06c.52.13.61.09.75-.15l.18-.29s.32-.08.68.26l-.11.35s.13-.03.34.06l.44-.47-.41-.63s-.36.07-.41.07l-.35-.26s.16-.88.94-1.14c0,0,.53-.15.88.33l.34.36h0Z"/>
    <path class="cls-7" d="M106.49,343.63s-.49,0-.49-.56v-3.95l-2.38-1.08s-.83.97-2.49,1.35l.4.63v3.39s-.07.29-.65.18v-3.41l.25-.56-1.75-1.48-1.55.97s-.18-.74-.99-.83l-1.12.94s-1.35.18-2.9-.88c0,0-.83.9-1.55,1.03,0,0-.7-.25-1.55-.97l-1.21.76s-.58-.61-.97-.72c0,0-.79.47-1.39,1.08,0,0-1.64-.43-2.63-1.03,0,0-1.32,1.02-2.63.87v-1.03s1.55-.07,2.24-1.01c0,0-1.86-.02-2.65-1.68,0,0-1.98,1.98-4.33,2.54l.49.49v5.25l-.38.27s-1.66-1.37-1.5-3.64c.16-2.27,2.78-3.88,3.08-3.97l-.11-.47s-3.82.2-5.68,3.73c0,0-1.64,3.82,1.53,6.02,0,0,2.45,1.82,6.26.34v.22s-.9.14-.81.83c0,0-.02.74.94.74,0,0,.97,0,.9-1.26v-1.08s.67-.29.47-.76c0,0-.07-.2-.45-.22v-.4c.4.11,1.78.52,2.67,1.09,0,0,1.41-1.1,2.72-1.17,0,0,.97.58,1.35,1.17,0,0,.54-1.01,1.93-1.53,0,0-.63-.16-.94-.18v-3.41s1.19.52,2.04-.09l.13.13v3.14l-.31.76s1.62.22,2.69,1.14c0,0,1.35-1.17,2.54-1.26,0,0,.88.52,1.48,1.26,0,0,.83-1.19,1.46-1.3,0,0,.79.56,1.32,1.41,0,0,.72-1.19,1.32-1.32,0,0,1.08-.05,2.33,1.17l1.01-.7s.22.52,1.05.7l1.8-1.84-1.01.18h0Z"/>
    <path class="cls-9" d="M81.31,343.18s-.17.32-.4.54v-4.08l.4.44v3.1Z"/>
    <path class="cls-3" d="M80.93,344.96c-.1.03-.2.06-.31.09v-7.03c.97.06,1.93-.59,1.93-.59-1.34-.07-2.11-1.43-2.11-1.43-1.64,1.62-3.71,2.25-3.71,2.25l.19.28v5.47l-.56.45c-1.2-.63-1.71-2.28-1.71-2.28-.92-3.92,3-5.85,3-5.85-6.49,1.44-5.68,6.16-5.68,6.16.31,3.47,4.09,3.97,4.09,3.97,1.85.22,3.34-.34,4.19-.79v.77s-.06.24-.33.24c0,0-.66.11-.61.63,0,0,.02.55.83.35,0,0,.5-.11.5-.83v-1.38c.24-.15.38-.26.38-.26.07-.04.18-.14.14-.2-.04-.07-.22,0-.22,0h0Z"/>
    <path class="cls-3" d="M77.11,344.87l1.95-1.64v-5.54c.21-.4.8.09.8.09.12.08.25.13.39.17v7.18c-1.78.33-3.13-.26-3.13-.26h0ZM83.52,338.77c.9.52,2.29.92,2.29.92l-.33.35v3.41l.3.48c-.85.11-2.14,1.01-2.14,1.01-.92-.57-2.56-.98-2.56-.98.37-.33.5-.85.5-.85v-3.19l-.22-.31c1.11-.18,2.18-.85,2.18-.85Z"/>
    <path class="cls-3" d="M82.84,339.71v3.67l1.25.41v-3.6l-1.25-.48ZM92.84,338.6c.89.65,2.55.85,2.55.85l-.28.46v3.41l.3.48c-.85.11-2.16,1.05-2.16,1.05-.92-.57-2.38-.94-2.38-.94.28-.31.22-.83.22-.83l.02-3.01-.22-.31c1.11-.18,1.96-1.16,1.96-1.16Z"/>
    <path class="cls-3" d="M92.47,339.73v3.52l1.25.41v-3.45l-1.25-.48ZM106.78,343.77l-1.11,1.13c-.42-.07-.92-.77-.92-.77-.37.21-.72.46-1.05.74-.92-.72-2.1-1.12-2.1-1.12.28-.31.22-.83.22-.83l.02-3.01-.33-.41c1.11-.18,2.18-1.18,2.18-1.18.72.39,2.1.9,2.1.9v3.93c.11.92,1,.63,1,.63Z"/>
    <path class="cls-3" d="M103.2,339.43v3.62l1.25.59v-3.73l-1.25-.48ZM86.4,339.64s.39.2.48.53v3.58s-.09.15-.41.15c0,0,.83.55,1.13.98,0,0,.63-.68,1.09-.92,0,0-.29-.02-.31-.3v-3.6l.35-.24s1.24.77,2.19-.33c0,0-.74-.35-1.2-.83l-1.27.85s-.22-.48-.92-.79c0,0-.94.65-1.12.92ZM95.81,339.41l1.11-.98s.55.2.81.98l1.64-1.05,1.44,1.2-.2.35.02,3.84.35.07s-.87.81-.92,1.01c0,0-.7-.77-1.03-1,0,0,.13-.06.2-.15v-3.71s-.2-.42-.61-.55l-.81.55v3.76s.22.07.33.09c0,0-.85.83-.92,1.01,0,0-.37-.55-1.16-1.01l.3-.11v-3.76s-.02-.26-.53-.55Z"/>
    <path class="cls-9" d="M77.6,344.78l1.71-1.35v-5.48s.38.09.56.22v6.76s-1.35.29-2.27-.16h0ZM83.07,343.18l.75.27v-3.01l-.75-.34v3.08ZM85.75,340.47s-.02-.47.4-.47.43.49.43.49v3.12s-.36.09-.58.13l-.25-.27v-3.01ZM92.71,340.24v2.81l.72.29v-2.83l-.72-.27ZM95.65,339.79s.25.11.4.36v3.39l-.43.11-.22-.29v-3.34s.11-.18.25-.22h0ZM98.08,340.22v3.35l.63.11.18-.16v-3.39s-.16-.25-.27-.29l-.54.38h0ZM103.42,339.93v2.83l.74.43v-3.01l-.74-.25Z"/>
    <path class="cls-3" d="M82.39,350.36v-3.46l.35-.29s-.23-.26-.72.22l-.17-.12.84-.93s1.32.44,3.11.06c0,0-.34.61-.74.86h-1.66s-.16.53.04,1.11c0,0,.3-.29.94-.1.52.15.77-.11.77-.11,0,0,.17.74-.65.8,0,0-.57.03-.93-.02-.19-.03-.2.14-.2.14v1.28c-.03.2-.14.3-.14.3.09.03.37-.02.37-.02.49-.16,1.33.07,1.33.07.39.1.56-.26.56-.26l.15-.25c.12,0,.21.09.21.09-.11.58-.71,1.25-.75,1.25s-.86-.1-1.69-.22-1.27.16-1.27.16l-.1-.15s.26-.33.35-.4h0ZM89.47,350.14c-.22.24-.37.2-.37.2,0,0-.59-.69-1.09-1.29l.57-.72s.07-.16.26-.05c0,0,.1.12.2.09,0,0,.16-.06-.02-.35,0,0-.34-.29-.64.04l-.58.74c-.18-.23-.34-.43-.42-.54-.3-.45-.75-.35-.75-.35-.37.03-.66.8-.66.8l.06.04c.22-.07.46-.1.46-.1l.71.9-.63.79s-.05.09-.23.03c0,0-.25-.17-.38-.06,0,0-.07.08.04.22.11.14.26.32.26.32,0,0,.21.16.34-.04l.8-1.01.64.82c.31.45.72.38.72.38.53,0,.78-.8.78-.8l-.08-.06h0ZM91.45,350.09l-.41.2-.23-.22v-1.85h.58v-.26h-.58v-.79l-.82.48v.3h-.43v.26h.43v1.86l-.2.28.71.61,1.09-.74-.13-.14ZM91.62,348.52l.66-.58.64.49.71-.51s.23.33.83.5c0,0-.09.45-.82.4,0,0-.18-.03-.47-.19l-.19.16v1.55l.15.08-.62.5-.56-.5.2-.06v-1.59l-.25-.23s-.05-.03-.26-.03h0ZM94.55,348.63l.15.21v1.38l-.19.19s.58.19,1.2.52l.72-.39s.18.4.71.43l.42-.38s-.37-.03-.34-.33v-1.78s-.74-.26-1.25-.67c0,0-.42.48-1.41.81h0Z"/>
    <path class="cls-7" d="M95.54,348.58v1.33l.75.34v-1.27l-.75-.4Z"/>
    <path class="cls-9" d="M95.77,349.2v.58l.21.1v-.61l-.21-.08ZM91.12,348.6v1.42l.32-.14.3.2v-1.13l-.24-.12-.09-.23h-.29ZM89.34,348.57h.28v1.34h-.13s-.18.18-.36.09l-.77-.94.36-.4s.48.17.61-.09h0Z"/>
    <path class="cls-3" d="M96.72,354.99c-.57.86-1.3.67-1.29.66.25-.18.61-.11.61-.11l.24-.54s-.23-.28-.77-.09c-.11-.05-.12-.2-.12-.2,0,0-.24.04-.29-.04-.08-.13-.23-.4-.61-.33l-.32-.32h-.01s-.23-.12-.63-.08c-.17-.19-.54-.43-.98-.25-.14-.12-.55-.39-1.11-.15-.13-.08-.54-.28-1-.16l-.15-.03c.05-.02.27-.06.27-.06v-.09s0-.3-.29-.41c-.04-.03-.13-.1-.14-.19,0,0-.12-.28-.29-.34-.17.06-.29.34-.29.34-.01.08-.1.16-.14.19-.28.11-.29.4-.29.41v.09s.22.04.27.06l-.15.03c-.46-.12-.87.09-1,.16-.56-.24-.97.03-1.11.15-.44-.18-.81.06-.98.25-.4-.03-.62.07-.63.08h-.02s-.32.33-.32.33c-.38-.06-.53.2-.61.33-.05.09-.29.04-.29.04,0,0,0,.15-.12.2-.54-.19-.77.09-.77.09l.24.54s.36-.07.61.11c.01,0-.71.21-1.29-.66,0,.01-.47,1.36,1.21,2.14,0,0,.27.06.27.58v1.95h10.81v-1.95c0-.52.27-.58.27-.58,1.67-.78,1.21-2.13,1.21-2.14h0Z"/>
    <path class="cls-5" d="M83.76,355.33l-.1-.23c.1-.03.55.03.55.03,0,0,.16-.1.22-.2.11,0,.27-.02.33-.16.13-.35.5-.22.5-.22l.37-.37s.3-.1.64-.06c.01-.02.43-.47.91-.23.02-.02.5-.43,1.09-.15,0,0,.49-.31.95-.17h.02s.4-.08.4-.08v-.24s-.16-.09-.31-.13c.02-.11.16-.16.16-.16,0,0,.22-.14.25-.33.02-.05.05-.12.09-.16.04.04.08.11.09.16.03.19.25.33.25.33,0,0,.14.05.16.16-.14.04-.31.13-.31.13v.24l.4.09h.02c.46-.14.95.16.95.17.59-.29,1.07.13,1.09.15.48-.24.9.21.91.23.33-.03.6.05.64.06l.37.37s.37-.13.5.22c.05.14.22.16.33.16.06.1.22.2.22.2,0,0,.45-.06.55-.03l-.1.23c-.18,0-.44.06-.59.15-.12.07-.44.33-.59.44-.71-.87-1.79-1.04-1.79-1.04,0,0,.22.61.23.71h-.66c-.41-.83-.93-.97-1-.98-.1-.04-.24-.08-.32,0-.13.12.01.28.01.28.34.32.3.54.21.82-.02.07-.06.09-.08.1-.09.04-.24-.02-.29-.05-.41-.33-1.08-.44-1.11-.44-.12-.02-.28,0-.28,0-.03,0-.66.11-1.07.44-.05.03-.2.08-.29.05-.02,0-.06-.03-.08-.1-.09-.28-.13-.5.21-.82,0,0,.14-.16.01-.28-.09-.08-.22-.04-.32,0-.06.01-.59.16-1,.98h-.66c.01-.1.23-.71.23-.71,0,0-1.07.17-1.79,1.04-.14-.12-.46-.37-.59-.44-.15-.08-.41-.15-.59-.15h0Z"/>
    <path class="cls-9" d="M94.42,356.36c-.05-.03-.21-.09-.21-.09,0,0-.23.07-.41.23h0c-.43-.57-.67-.57-.67-.57-.02,0-.49.03-.81.59l-.04.06s.28.34.3.4c-.01.06-.06.26-.22.32-.03,0-.09-.01-.12-.05-.01-.04-.02-.08-.02-.11,0-.01.02-.12.18-.15l.14-.03-.07-.12s-.22-.36-.77-.48c0,0-.14.02-.27.09,0-.03-.08-.25-.35-.49.09.03.24.07.37.01.09-.04.16-.11.19-.22.05-.14.07-.26.07-.38,0-.21-.09-.4-.32-.63.02,0,.62.15,1.05,1.02h.95s0-.37-.1-.64c1.12.48,1.43,1.04,1.43,1.04-.06.02-.42.03-.42.03,0,0,.07.11.12.15h0ZM93.77,357.2s-.01.01-.03.02c-.04,0-.07-.01-.09-.04-.03-.03-.04-.08-.04-.14,0-.02,0-.04,0-.06l.08-.06h0s.07.06.08.11h0s0,.01,0,.01c.01.03.03.11,0,.15h0ZM87.3,356.99c.16.03.18.14.18.15,0,.01.04.22-.14.17-.15-.06-.2-.26-.22-.32.02-.07.3-.4.3-.4l-.04-.06c-.32-.56-.79-.59-.81-.59,0,0-.24,0-.66.56h0c-.17-.14-.41-.22-.41-.22,0,0-.15.06-.21.09.05-.04.12-.15.12-.15,0,0-.36-.01-.42-.03,0,0,.31-.57,1.43-1.04-.1.27-.1.65-.1.65h.95c.43-.88,1.03-1.02,1.05-1.03-.23.22-.32.42-.32.63,0,.12.03.24.07.38.04.11.1.18.19.22.13.05.27.02.37-.01-.26.23-.34.45-.35.49-.09-.04-.18-.07-.27-.09-.55.11-.85.6-.85.6l.14.02h0ZM86.04,357.18s-.06.04-.09.04c-.03-.01-.05-.05-.04-.08.03-.14.06-.19.09-.22h0s.08.06.08.06c0,.02.01.15-.04.19h0Z"/>
    <path class="cls-5" d="M84.64,358.07h10.42v.37h-10.42v-.37ZM84.64,358.62h10.42v.84h-10.42v-.84ZM95.44,356.95c-.08.02-.39.14-.39.76v.18h-10.42v-.18c0-.62-.3-.74-.39-.76-1.31-.59-1.19-1.54-1.18-1.57.19.22.6.54,1.26.5.09.18.3.43.64.51-.1.11-.22.27-.2.43.04.48.32.45.39.43.24-.08.06-.32-.01-.41.02-.07.1-.25.35-.35.07.03.27.12.39.3-.03.02-.14.1-.16.2-.07.29.11.44.2.43h0s0,0,0,0c.02,0,.15,0,.26-.1.12-.13.1-.47-.02-.51l-.08-.24c.07-.09.28-.33.49-.43.08.01.36.08.59.43-.09.1-.25.41-.25.41,0,0,0,.4.37.53,0,0,.23.06.32-.12.02-.05.2-.34-.13-.54.09-.09.26-.22.55-.29.07.02.31.1.54.37-.06.05-.13.11-.14.2,0,0-.12.37.34.38.29,0,.37-.33.37-.42,0-.05.06-.46-.63-.66.1-.19.41-.61,1.35-.79h0c.93.17,1.25.6,1.35.79-.7.2-.63.61-.63.66,0,.1.08.43.37.42.46,0,.34-.37.34-.38-.02-.08-.08-.15-.14-.2.23-.27.47-.35.54-.37.29.06.46.19.55.29-.33.2-.15.49-.13.54.09.17.32.12.32.12.37-.12.37-.53.37-.53,0,0-.17-.31-.25-.41.23-.34.51-.42.59-.43.21.1.42.34.49.43l-.08.24c-.11.04-.14.38-.02.51.07.07.16.11.26.1h0s0,0,0,0c.09,0,.27-.14.2-.43-.02-.1-.14-.18-.16-.2.12-.18.31-.27.39-.3.25.09.33.27.35.35-.08.1-.26.34-.01.41.06.02.35.05.39-.43.01-.17-.11-.32-.2-.43.35-.08.55-.33.64-.51.66.05,1.06-.28,1.26-.5,0,.03.12.98-1.18,1.57h0Z"/>
    <path class="cls-9" d="M88.56,356.66c.24.11.34.28.35.31.04.12,0,.22-.02.25-.05.08-.15.09-.16.09-.17,0-.13-.14-.13-.15,0-.07.25-.17.25-.17,0,0-.22-.27-.29-.34ZM90.94,357.05c.06.03.13.09.14.12,0,.02,0,.09-.03.12-.02.02-.06.03-.1.03,0,0-.1-.01-.16-.09-.04-.06-.05-.14-.02-.25.02-.03.11-.2.35-.31-.08.07-.16.15-.22.24l-.07.09.1.05h0Z"/>
    <circle class="cls-3" cx="85.4" cy="359.05" r=".36"/>
    <circle class="cls-9" cx="85.4" cy="359.05" r=".21"/>
    <circle class="cls-3" cx="87.56" cy="359.05" r=".36"/>
    <circle class="cls-9" cx="87.56" cy="359.05" r=".21"/>
    <circle class="cls-3" cx="89.79" cy="359.05" r=".36"/>
    <circle class="cls-9" cx="89.79" cy="359.05" r=".21"/>
    <circle class="cls-3" cx="91.97" cy="359.05" r=".36"/>
    <circle class="cls-9" cx="91.97" cy="359.05" r=".21"/>
    <circle class="cls-3" cx="94.19" cy="359.05" r=".36"/>
    <circle class="cls-9" cx="94.19" cy="359.05" r=".21"/>
  </g>
  <path class="cls-15" d="M84.42,365.78s-15.45-4.17-13.94,1.88,19.12,5.29,19.12,5.29c0,0-21.22,1.37-19.23,4.46s13.56-1.21,15.9,0-19.58,6.12-14.29,7.25,18.56-2.65,18.56-2.65l36.62-9.07v-14.19l-42.75,7.01Z"/>
  <g>
    <path class="cls-15" d="M55.95,372.57s-15.45-4.17-13.94,1.88,19.12,5.29,19.12,5.29c0,0-21.22,1.37-19.23,4.46s13.56-1.21,15.9,0-19.58,6.12-14.29,7.25,18.56-2.65,18.56-2.65l36.62-9.07v-14.19l-42.75,7.01Z"/>
    <g>
      <path class="cls-4" d="M78.13,276.9s1.28,31.38-1.79,37.85c-3.08,6.47-8.2,13.65-7.69,21.59.51,10,0,65.63,0,65.63,0,0-.75,5.64,9.75,5.64s21.78,1.28,24.86,0c3.08-1.28,6.41-2.82,6.41-5.9v-67.42s-.77-6.92-3.08-10.77-4.87-4.1-4.87-24.35-1.11-22.13-1.11-22.64-22.05-3.54-22.47.37Z"/>
      <path class="cls-4" d="M87.28,243.63s-9.31,1.45-8.8,5.64,3.87,1.74,5.06,1.54,15.28.6,16.22,1.11,3.5-.85,2.05-3.08-1.79-6.49-14.53-5.21Z"/>
      <path class="cls-9" d="M71.1,334.75s34.64.85,36.29.28.97,53.21-.11,53.72-35.83,1.94-36.17,0-2.45-47.45,0-54Z"/>
      <path class="cls-11" d="M80.78,251.92s-1.97,0-1.79,1.54,2.05,2.39,1.79,3.33-3.25,16.54-2.65,20.11,4.36-3.79,22.47-.37c0,0-1.71-18.12-1.2-19.23s1.11-1.11,1.2-2.14-.17-2.82-.85-3.25-14.78-3.16-18.97,0Z"/>
      <path class="cls-8" d="M108.08,360.78s-34.91.51-38.07-.26c0,0,.58,27.83,1.08,28.23s11.05,2.68,36.17,0c0,0,1.88-24.72.81-27.97Z"/>
      <path class="cls-7" d="M87.79,348.38l.31-.34c.23-.26.49-.29.49-.29.43-.08.7.26.7.26v-.22h.38v-.22l1.41-.74v.99h.58v.25l.6-.36.68.44.65-.47c.58.54,1.11.64,1.11.64v.08c.53-.2,1.23-.85,1.23-.85,1.02.68,1.59.79,1.59.79v2l.36-.17.05.57-.85.64c-.45.01-.77-.37-.77-.37l-.61.36c-.63-.47-1.73-.67-1.73-.67l.41-.49v-1.15s-.3.29-1.14.12v1.06l.47.14-1.27,1.03-.92-.71s-1.08.69-1.1.66-.8-.64-.8-.64c0,0-.32.64-.87.64,0,0-.62.02-.97-.5l-.38-.49-.74.81s-.15.19-.45.05c0,0-.3-.08-.48-.49,0,0-.37.54-.58.65,0,0-2.25-.52-3.2-.08,0,0-.52-.35.13-.96v-3.09l-.14.06-.44-.52,1.09-1.2s1.87.49,3.71-.02c0,0-.42.98-1.2,1.51h-1.49v.43s.25-.09.71.02c.45.11.73-.05.86-.22,0,0,.34.24.16.89,0,0-.19.79-1.72.5v1.14s.39-.07.92.06c.52.13.61.09.75-.15l.18-.29s.32-.08.68.26l-.11.35s.13-.03.34.06l.44-.47-.41-.63s-.36.07-.41.07l-.35-.26s.16-.88.94-1.14c0,0,.53-.15.88.33l.34.36h0Z"/>
      <path class="cls-7" d="M106.49,343.63s-.49,0-.49-.56v-3.95l-2.38-1.08s-.83.97-2.49,1.35l.4.63v3.39s-.07.29-.65.18v-3.41l.25-.56-1.75-1.48-1.55.97s-.18-.74-.99-.83l-1.12.94s-1.35.18-2.9-.88c0,0-.83.9-1.55,1.03,0,0-.7-.25-1.55-.97l-1.21.76s-.58-.61-.97-.72c0,0-.79.47-1.39,1.08,0,0-1.64-.43-2.63-1.03,0,0-1.32,1.02-2.63.87v-1.03s1.55-.07,2.24-1.01c0,0-1.86-.02-2.65-1.68,0,0-1.98,1.98-4.33,2.54l.49.49v5.25l-.38.27s-1.66-1.37-1.5-3.64c.16-2.27,2.78-3.88,3.08-3.97l-.11-.47s-3.82.2-5.68,3.73c0,0-1.64,3.82,1.53,6.02,0,0,2.45,1.82,6.26.34v.22s-.9.14-.81.83c0,0-.02.74.94.74,0,0,.97,0,.9-1.26v-1.08s.67-.29.47-.76c0,0-.07-.2-.45-.22v-.4c.4.11,1.78.52,2.67,1.09,0,0,1.41-1.1,2.72-1.17,0,0,.97.58,1.35,1.17,0,0,.54-1.01,1.93-1.53,0,0-.63-.16-.94-.18v-3.41s1.19.52,2.04-.09l.13.13v3.14l-.31.76s1.62.22,2.69,1.14c0,0,1.35-1.17,2.54-1.26,0,0,.88.52,1.48,1.26,0,0,.83-1.19,1.46-1.3,0,0,.79.56,1.32,1.41,0,0,.72-1.19,1.32-1.32,0,0,1.08-.05,2.33,1.17l1.01-.7s.22.52,1.05.7l1.8-1.84-1.01.18h0Z"/>
      <path class="cls-9" d="M81.31,343.18s-.17.32-.4.54v-4.08l.4.44v3.1Z"/>
      <path class="cls-3" d="M80.93,344.96c-.1.03-.2.06-.31.09v-7.03c.97.06,1.93-.59,1.93-.59-1.34-.07-2.11-1.43-2.11-1.43-1.64,1.62-3.71,2.25-3.71,2.25l.19.28v5.47l-.56.45c-1.2-.63-1.71-2.28-1.71-2.28-.92-3.92,3-5.85,3-5.85-6.49,1.44-5.68,6.16-5.68,6.16.31,3.47,4.09,3.97,4.09,3.97,1.85.22,3.34-.34,4.19-.79v.77s-.06.24-.33.24c0,0-.66.11-.61.63,0,0,.02.55.83.35,0,0,.5-.11.5-.83v-1.38c.24-.15.38-.26.38-.26.07-.04.18-.14.14-.2-.04-.07-.22,0-.22,0h0Z"/>
      <path class="cls-3" d="M77.11,344.87l1.95-1.64v-5.54c.21-.4.8.09.8.09.12.08.25.13.39.17v7.18c-1.78.33-3.13-.26-3.13-.26h0ZM83.52,338.77c.9.52,2.29.92,2.29.92l-.33.35v3.41l.3.48c-.85.11-2.14,1.01-2.14,1.01-.92-.57-2.56-.98-2.56-.98.37-.33.5-.85.5-.85v-3.19l-.22-.31c1.11-.18,2.18-.85,2.18-.85Z"/>
      <path class="cls-3" d="M82.84,339.71v3.67l1.25.41v-3.6l-1.25-.48ZM92.84,338.6c.89.65,2.55.85,2.55.85l-.28.46v3.41l.3.48c-.85.11-2.16,1.05-2.16,1.05-.92-.57-2.38-.94-2.38-.94.28-.31.22-.83.22-.83l.02-3.01-.22-.31c1.11-.18,1.96-1.16,1.96-1.16Z"/>
      <path class="cls-3" d="M92.47,339.73v3.52l1.25.41v-3.45l-1.25-.48ZM106.78,343.77l-1.11,1.13c-.42-.07-.92-.77-.92-.77-.37.21-.72.46-1.05.74-.92-.72-2.1-1.12-2.1-1.12.28-.31.22-.83.22-.83l.02-3.01-.33-.41c1.11-.18,2.18-1.18,2.18-1.18.72.39,2.1.9,2.1.9v3.93c.11.92,1,.63,1,.63Z"/>
      <path class="cls-3" d="M103.2,339.43v3.62l1.25.59v-3.73l-1.25-.48ZM86.4,339.64s.39.2.48.53v3.58s-.09.15-.41.15c0,0,.83.55,1.13.98,0,0,.63-.68,1.09-.92,0,0-.29-.02-.31-.3v-3.6l.35-.24s1.24.77,2.19-.33c0,0-.74-.35-1.2-.83l-1.27.85s-.22-.48-.92-.79c0,0-.94.65-1.12.92ZM95.81,339.41l1.11-.98s.55.2.81.98l1.64-1.05,1.44,1.2-.2.35.02,3.84.35.07s-.87.81-.92,1.01c0,0-.7-.77-1.03-1,0,0,.13-.06.2-.15v-3.71s-.2-.42-.61-.55l-.81.55v3.76s.22.07.33.09c0,0-.85.83-.92,1.01,0,0-.37-.55-1.16-1.01l.3-.11v-3.76s-.02-.26-.53-.55Z"/>
      <path class="cls-9" d="M77.6,344.78l1.71-1.35v-5.48s.38.09.56.22v6.76s-1.35.29-2.27-.16h0ZM83.07,343.18l.75.27v-3.01l-.75-.34v3.08ZM85.75,340.47s-.02-.47.4-.47.43.49.43.49v3.12s-.36.09-.58.13l-.25-.27v-3.01ZM92.71,340.24v2.81l.72.29v-2.83l-.72-.27ZM95.65,339.79s.25.11.4.36v3.39l-.43.11-.22-.29v-3.34s.11-.18.25-.22h0ZM98.08,340.22v3.35l.63.11.18-.16v-3.39s-.16-.25-.27-.29l-.54.38h0ZM103.42,339.93v2.83l.74.43v-3.01l-.74-.25Z"/>
      <path class="cls-3" d="M82.39,350.36v-3.46l.35-.29s-.23-.26-.72.22l-.17-.12.84-.93s1.32.44,3.11.06c0,0-.34.61-.74.86h-1.66s-.16.53.04,1.11c0,0,.3-.29.94-.1.52.15.77-.11.77-.11,0,0,.17.74-.65.8,0,0-.57.03-.93-.02-.19-.03-.2.14-.2.14v1.28c-.03.2-.14.3-.14.3.09.03.37-.02.37-.02.49-.16,1.33.07,1.33.07.39.1.56-.26.56-.26l.15-.25c.12,0,.21.09.21.09-.11.58-.71,1.25-.75,1.25s-.86-.1-1.69-.22-1.27.16-1.27.16l-.1-.15s.26-.33.35-.4h0ZM89.47,350.14c-.22.24-.37.2-.37.2,0,0-.59-.69-1.09-1.29l.57-.72s.07-.16.26-.05c0,0,.1.12.2.09,0,0,.16-.06-.02-.35,0,0-.34-.29-.64.04l-.58.74c-.18-.23-.34-.43-.42-.54-.3-.45-.75-.35-.75-.35-.37.03-.66.8-.66.8l.06.04c.22-.07.46-.1.46-.1l.71.9-.63.79s-.05.09-.23.03c0,0-.25-.17-.38-.06,0,0-.07.08.04.22.11.14.26.32.26.32,0,0,.21.16.34-.04l.8-1.01.64.82c.31.45.72.38.72.38.53,0,.78-.8.78-.8l-.08-.06h0ZM91.45,350.09l-.41.2-.23-.22v-1.85h.58v-.26h-.58v-.79l-.82.48v.3h-.43v.26h.43v1.86l-.2.28.71.61,1.09-.74-.13-.14ZM91.62,348.52l.66-.58.64.49.71-.51s.23.33.83.5c0,0-.09.45-.82.4,0,0-.18-.03-.47-.19l-.19.16v1.55l.15.08-.62.5-.56-.5.2-.06v-1.59l-.25-.23s-.05-.03-.26-.03h0ZM94.55,348.63l.15.21v1.38l-.19.19s.58.19,1.2.52l.72-.39s.18.4.71.43l.42-.38s-.37-.03-.34-.33v-1.78s-.74-.26-1.25-.67c0,0-.42.48-1.41.81h0Z"/>
      <path class="cls-7" d="M95.54,348.58v1.33l.75.34v-1.27l-.75-.4Z"/>
      <path class="cls-9" d="M95.77,349.2v.58l.21.1v-.61l-.21-.08ZM91.12,348.6v1.42l.32-.14.3.2v-1.13l-.24-.12-.09-.23h-.29ZM89.34,348.57h.28v1.34h-.13s-.18.18-.36.09l-.77-.94.36-.4s.48.17.61-.09h0Z"/>
      <path class="cls-3" d="M96.72,354.99c-.57.86-1.3.67-1.29.66.25-.18.61-.11.61-.11l.24-.54s-.23-.28-.77-.09c-.11-.05-.12-.2-.12-.2,0,0-.24.04-.29-.04-.08-.13-.23-.4-.61-.33l-.32-.32h-.01s-.23-.12-.63-.08c-.17-.19-.54-.43-.98-.25-.14-.12-.55-.39-1.11-.15-.13-.08-.54-.28-1-.16l-.15-.03c.05-.02.27-.06.27-.06v-.09s0-.3-.29-.41c-.04-.03-.13-.1-.14-.19,0,0-.12-.28-.29-.34-.17.06-.29.34-.29.34-.01.08-.1.16-.14.19-.28.11-.29.4-.29.41v.09s.22.04.27.06l-.15.03c-.46-.12-.87.09-1,.16-.56-.24-.97.03-1.11.15-.44-.18-.81.06-.98.25-.4-.03-.62.07-.63.08h-.02s-.32.33-.32.33c-.38-.06-.53.2-.61.33-.05.09-.29.04-.29.04,0,0,0,.15-.12.2-.54-.19-.77.09-.77.09l.24.54s.36-.07.61.11c.01,0-.71.21-1.29-.66,0,.01-.47,1.36,1.21,2.14,0,0,.27.06.27.58v1.95h10.81v-1.95c0-.52.27-.58.27-.58,1.67-.78,1.21-2.13,1.21-2.14h0Z"/>
      <path class="cls-5" d="M83.76,355.33l-.1-.23c.1-.03.55.03.55.03,0,0,.16-.1.22-.2.11,0,.27-.02.33-.16.13-.35.5-.22.5-.22l.37-.37s.3-.1.64-.06c.01-.02.43-.47.91-.23.02-.02.5-.43,1.09-.15,0,0,.49-.31.95-.17h.02s.4-.08.4-.08v-.24s-.16-.09-.31-.13c.02-.11.16-.16.16-.16,0,0,.22-.14.25-.33.02-.05.05-.12.09-.16.04.04.08.11.09.16.03.19.25.33.25.33,0,0,.14.05.16.16-.14.04-.31.13-.31.13v.24l.4.09h.02c.46-.14.95.16.95.17.59-.29,1.07.13,1.09.15.48-.24.9.21.91.23.33-.03.6.05.64.06l.37.37s.37-.13.5.22c.05.14.22.16.33.16.06.1.22.2.22.2,0,0,.45-.06.55-.03l-.1.23c-.18,0-.44.06-.59.15-.12.07-.44.33-.59.44-.71-.87-1.79-1.04-1.79-1.04,0,0,.22.61.23.71h-.66c-.41-.83-.93-.97-1-.98-.1-.04-.24-.08-.32,0-.13.12.01.28.01.28.34.32.3.54.21.82-.02.07-.06.09-.08.1-.09.04-.24-.02-.29-.05-.41-.33-1.08-.44-1.11-.44-.12-.02-.28,0-.28,0-.03,0-.66.11-1.07.44-.05.03-.2.08-.29.05-.02,0-.06-.03-.08-.1-.09-.28-.13-.5.21-.82,0,0,.14-.16.01-.28-.09-.08-.22-.04-.32,0-.06.01-.59.16-1,.98h-.66c.01-.1.23-.71.23-.71,0,0-1.07.17-1.79,1.04-.14-.12-.46-.37-.59-.44-.15-.08-.41-.15-.59-.15h0Z"/>
      <path class="cls-9" d="M94.42,356.36c-.05-.03-.21-.09-.21-.09,0,0-.23.07-.41.23h0c-.43-.57-.67-.57-.67-.57-.02,0-.49.03-.81.59l-.04.06s.28.34.3.4c-.01.06-.06.26-.22.32-.03,0-.09-.01-.12-.05-.01-.04-.02-.08-.02-.11,0-.01.02-.12.18-.15l.14-.03-.07-.12s-.22-.36-.77-.48c0,0-.14.02-.27.09,0-.03-.08-.25-.35-.49.09.03.24.07.37.01.09-.04.16-.11.19-.22.05-.14.07-.26.07-.38,0-.21-.09-.4-.32-.63.02,0,.62.15,1.05,1.02h.95s0-.37-.1-.64c1.12.48,1.43,1.04,1.43,1.04-.06.02-.42.03-.42.03,0,0,.07.11.12.15h0ZM93.77,357.2s-.01.01-.03.02c-.04,0-.07-.01-.09-.04-.03-.03-.04-.08-.04-.14,0-.02,0-.04,0-.06l.08-.06h0s.07.06.08.11h0s0,.01,0,.01c.01.03.03.11,0,.15h0ZM87.3,356.99c.16.03.18.14.18.15,0,.01.04.22-.14.17-.15-.06-.2-.26-.22-.32.02-.07.3-.4.3-.4l-.04-.06c-.32-.56-.79-.59-.81-.59,0,0-.24,0-.66.56h0c-.17-.14-.41-.22-.41-.22,0,0-.15.06-.21.09.05-.04.12-.15.12-.15,0,0-.36-.01-.42-.03,0,0,.31-.57,1.43-1.04-.1.27-.1.65-.1.65h.95c.43-.88,1.03-1.02,1.05-1.03-.23.22-.32.42-.32.63,0,.12.03.24.07.38.04.11.1.18.19.22.13.05.27.02.37-.01-.26.23-.34.45-.35.49-.09-.04-.18-.07-.27-.09-.55.11-.85.6-.85.6l.14.02h0ZM86.04,357.18s-.06.04-.09.04c-.03-.01-.05-.05-.04-.08.03-.14.06-.19.09-.22h0s.08.06.08.06c0,.02.01.15-.04.19h0Z"/>
      <path class="cls-5" d="M84.64,358.07h10.42v.37h-10.42v-.37ZM84.64,358.62h10.42v.84h-10.42v-.84ZM95.44,356.95c-.08.02-.39.14-.39.76v.18h-10.42v-.18c0-.62-.3-.74-.39-.76-1.31-.59-1.19-1.54-1.18-1.57.19.22.6.54,1.26.5.09.18.3.43.64.51-.1.11-.22.27-.2.43.04.48.32.45.39.43.24-.08.06-.32-.01-.41.02-.07.1-.25.35-.35.07.03.27.12.39.3-.03.02-.14.1-.16.2-.07.29.11.44.2.43h0s0,0,0,0c.02,0,.15,0,.26-.1.12-.13.1-.47-.02-.51l-.08-.24c.07-.09.28-.33.49-.43.08.01.36.08.59.43-.09.1-.25.41-.25.41,0,0,0,.4.37.53,0,0,.23.06.32-.12.02-.05.2-.34-.13-.54.09-.09.26-.22.55-.29.07.02.31.1.54.37-.06.05-.13.11-.14.2,0,0-.12.37.34.38.29,0,.37-.33.37-.42,0-.05.06-.46-.63-.66.1-.19.41-.61,1.35-.79h0c.93.17,1.25.6,1.35.79-.7.2-.63.61-.63.66,0,.1.08.43.37.42.46,0,.34-.37.34-.38-.02-.08-.08-.15-.14-.2.23-.27.47-.35.54-.37.29.06.46.19.55.29-.33.2-.15.49-.13.54.09.17.32.12.32.12.37-.12.37-.53.37-.53,0,0-.17-.31-.25-.41.23-.34.51-.42.59-.43.21.1.42.34.49.43l-.08.24c-.11.04-.14.38-.02.51.07.07.16.11.26.1h0s0,0,0,0c.09,0,.27-.14.2-.43-.02-.1-.14-.18-.16-.2.12-.18.31-.27.39-.3.25.09.33.27.35.35-.08.1-.26.34-.01.41.06.02.35.05.39-.43.01-.17-.11-.32-.2-.43.35-.08.55-.33.64-.51.66.05,1.06-.28,1.26-.5,0,.03.12.98-1.18,1.57h0Z"/>
      <path class="cls-9" d="M88.56,356.66c.24.11.34.28.35.31.04.12,0,.22-.02.25-.05.08-.15.09-.16.09-.17,0-.13-.14-.13-.15,0-.07.25-.17.25-.17,0,0-.22-.27-.29-.34ZM90.94,357.05c.06.03.13.09.14.12,0,.02,0,.09-.03.12-.02.02-.06.03-.1.03,0,0-.1-.01-.16-.09-.04-.06-.05-.14-.02-.25.02-.03.11-.2.35-.31-.08.07-.16.15-.22.24l-.07.09.1.05h0Z"/>
      <circle class="cls-3" cx="85.4" cy="359.05" r=".36"/>
      <circle class="cls-9" cx="85.4" cy="359.05" r=".21"/>
      <circle class="cls-3" cx="87.56" cy="359.05" r=".36"/>
      <circle class="cls-9" cx="87.56" cy="359.05" r=".21"/>
      <circle class="cls-3" cx="89.79" cy="359.05" r=".36"/>
      <circle class="cls-9" cx="89.79" cy="359.05" r=".21"/>
      <circle class="cls-3" cx="91.97" cy="359.05" r=".36"/>
      <circle class="cls-9" cx="91.97" cy="359.05" r=".21"/>
      <circle class="cls-3" cx="94.19" cy="359.05" r=".36"/>
      <circle class="cls-9" cx="94.19" cy="359.05" r=".21"/>
    </g>
    <path class="cls-15" d="M84.42,365.78s-15.45-4.17-13.94,1.88,19.12,5.29,19.12,5.29c0,0-21.22,1.37-19.23,4.46s13.56-1.21,15.9,0-19.58,6.12-14.29,7.25,18.56-2.65,18.56-2.65l36.62-9.07v-14.19l-42.75,7.01Z"/>
  </g>
  <path class="cls-2" d="M130,358.54c-.57.59-4.41.91-4.41.91l.74,13.12,4.85-1.01-1.18-13.02Z"/>
</svg>