<?xml version="1.0" encoding="UTF-8"?>
<svg id="Calque_1" data-name="Calque 1" xmlns="http://www.w3.org/2000/svg" viewBox="0 0 459.81 81.05">
  <defs>
    <style>
      .cls-1 {
        fill: #fff;
        stroke-width: 0px;
      }
    </style>
  </defs>
  <path class="cls-1" d="M5.61,3.6c-1.73,14.76-3.18,29.56-4.35,44.38-.3,3.79-.58,7.58-.84,11.36-.21,3.11-.75,6.4-.14,9.49.66,3.3,3.38,5.5,6.77,5.25s6.88-1.33,10.16-2.23c11.62-3.2,25.8-7.77,30-20.41,2.07-6.22,1.7-13.31.91-19.73s-2.75-12.48-6.63-17.7c-4.08-5.49-9.57-9.68-16.02-12.01C18.58-.5,10.84-.64,3.83,1.5c-3.07.94-1.76,5.76,1.33,4.82,10.75-3.28,22.56-.21,30.21,8.06,3.59,3.88,5.99,8.64,7.14,13.79.7,3.14.96,6.35,1.1,9.56.12,2.75.15,5.55-.25,8.28-.8,5.42-3.44,9.92-7.96,13.04s-10.07,5.09-15.41,6.76c-3.02.95-6.09,1.78-9.17,2.49-1.33.31-2.79.78-4.17.8-1.01,0-1.25-.4-1.47-1.28-.24-.98-.17-2.03-.12-3.04.1-1.73.23-3.46.35-5.19.23-3.38.48-6.75.74-10.13,1.19-15.31,2.68-30.6,4.46-45.86.16-1.34-1.26-2.5-2.5-2.5-1.48,0-2.34,1.15-2.5,2.5h0Z"/>
  <path class="cls-1" d="M61.56,64.55c-1.48-8.09.56-16.33,3.08-23.99s5.69-15.69,9.17-23.27c.88-1.93,1.79-3.84,2.73-5.75.45-.92.91-1.83,1.37-2.74.19-.38.69-1.02.73-1.41,0,.1.12-.21.1-.23l-1.49.03.25.25c.42.75,1.21,1.43,1.76,2.1.65.78,1.3,1.57,1.93,2.37,1.18,1.48,2.31,3,3.36,4.58,2.13,3.19,3.85,6.58,4.83,10.3,1.04,3.96,1.31,8.04,1.34,12.12.07,9.81-.44,19.65-.7,29.46-.09,3.22,4.91,3.22,5,0,.26-9.58.72-19.18.71-28.76,0-4.51-.29-9.08-1.35-13.48s-2.96-8.31-5.38-11.98-5.02-7.17-7.96-10.24c-1.66-1.74-4.25-2.04-5.93-.14-1.42,1.61-2.25,3.98-3.18,5.9-4.09,8.38-7.7,17.01-10.8,25.81-3.44,9.76-6.27,20.02-4.36,30.42.24,1.33,1.86,2.08,3.08,1.75,1.4-.38,1.99-1.74,1.75-3.08h0Z"/>
  <path class="cls-1" d="M65.57,34.79c7.81.15,15.61.29,23.42.44,3.22.06,3.22-4.94,0-5-7.81-.15-15.61-.29-23.42-.44-3.22-.06-3.22,4.94,0,5h0Z"/>
  <path class="cls-1" d="M105.49,11.21c-3.49,11.55-4.64,23.83-3.25,35.82.34,2.97.81,5.93,1.44,8.86.55,2.56,1.37,5.21,3.52,6.88,4.69,3.65,10.7-.1,14-3.81,4.02-4.52,6.25-10.47,6.11-16.52-.08-3.21-5.02-3.23-5,0,.01,2.99,0,5.97.04,8.96.03,2.53.26,5.27,1.77,7.39,3.19,4.48,9.19,3.71,13.46,1.37,9.03-4.96,14.15-14.95,16.24-24.68,1.42-6.61,1.73-13.4,2.02-20.14.14-3.22-4.86-3.21-5,0-.41,9.63-.76,19.79-5.11,28.6-1.83,3.7-4.25,7.07-7.44,9.71-2.11,1.75-6.65,4.88-9.46,2.92-1.53-1.07-1.46-3.52-1.48-5.18-.04-2.99-.03-5.97-.04-8.96h-5c.1,4.31-1.22,8.51-3.8,11.97-1.16,1.55-2.62,3.04-4.32,4-1.24.71-3.14,1.42-4.26.13-1.26-1.45-1.45-3.99-1.8-5.78-.48-2.5-.85-5.02-1.09-7.56-.49-5.21-.5-10.46-.05-15.67.5-5.76,1.65-11.45,3.32-16.98.93-3.09-3.89-4.41-4.82-1.33h0Z"/>
  <path class="cls-1" d="M184.16,13.7c-8.11,3.44-15.07,9.19-20.25,16.29s-9.14,15.87-7.68,24.48c.75,4.42,3.55,8.21,7.66,10.05,4.72,2.12,10.06,2.21,15.08,1.28s9.95-3.09,14.47-5.57c2.12-1.16,4.23-2.42,5.7-4.38,1.33-1.77,1.97-4.04,1.83-6.25-.34-5.44-4.28-9.49-9.33-11.09-5.67-1.8-11.62-.32-17.17,1.2-3.1.85-1.78,5.68,1.33,4.82,4.04-1.11,8.41-2.44,12.64-1.67,3.28.59,6.5,2.37,7.36,5.81.36,1.42.23,2.98-.65,4.19-1.02,1.41-2.76,2.23-4.24,3.05-3.85,2.12-7.89,3.9-12.2,4.85-3.95.87-8.35.99-12.17-.51-3.14-1.23-5.01-3.84-5.5-7.13-1.04-6.92,2.79-14.36,6.63-19.84,4.74-6.77,11.41-12.04,19-15.26,1.24-.53,1.52-2.36.9-3.42-.75-1.29-2.17-1.43-3.42-.9h0Z"/>
  <path class="cls-1" d="M208.65,15.04c-6.44,8.51-5.12,21.04,2.91,28.03,3.93,3.42,9.68,6.28,14.66,3.34,4.25-2.52,7.18-6.94,8.91-11.46,1.93-5.04,2.38-10.67,1.85-16.01-.13-1.34-1.05-2.5-2.5-2.5-1.37,0-2.48,1.14-2.5,2.5-.13,9.76-.38,19.51-.74,29.26-.09,2.48-.19,4.96-.3,7.44-.08,1.83-.11,3.75-.78,5.49-1.32,3.4-6.04,3.74-9.15,4-5.13.44-10.21-.12-15.12-1.64-3.08-.95-4.4,3.88-1.33,4.82,4.85,1.5,9.99,2.17,15.07,1.91,4.37-.23,10.02-.71,13.21-4.12s3.03-8.53,3.21-12.94c.22-5.37.41-10.74.56-16.12.17-6.03.29-12.07.38-18.11h-5c.74,7.48-.44,16-6.12,21.45-1.26,1.21-2.84,2.57-4.7,2.29s-3.89-1.44-5.42-2.61c-3.05-2.32-5.19-5.74-5.96-9.49-.94-4.58.4-9.33,3.19-13.02.82-1.08.17-2.8-.9-3.42-1.28-.75-2.6-.18-3.42.9h0Z"/>
  <path class="cls-1" d="M248.03,18.99c1.96,16.09-2.39,32.05-2,48.15.08,3.21,4.95,3.23,5,0,.21-14.64,2.18-29.46,6.37-43.51.36-1.22.72-2.17,2.01-2.57,1.19-.37,2.55-.21,3.74.1,2.53.68,4.68,2.38,6.29,4.4,3.94,4.96,4.22,11.81,4.38,17.86.23,8.61.4,17.23.6,25.84.07,3.21,5.07,3.22,5,0-.19-8.39-.38-16.79-.58-25.18-.18-7.22-.59-15.13-5.13-21.12-2.07-2.73-4.68-4.92-7.88-6.18s-7.19-1.48-10.02.47c-3.19,2.2-3.75,6.76-4.62,10.24-.99,3.94-1.83,7.91-2.53,11.9-1.61,9.16-2.49,18.43-2.62,27.73h5c-.39-16.1,3.95-32.06,2-48.15-.16-1.34-1.03-2.5-2.5-2.5-1.22,0-2.66,1.15-2.5,2.5h0Z"/>
  <path class="cls-1" d="M289.64,68.39c-1.45-15.48,2.16-31.19,10.18-44.51,2.26-3.76,4.85-7.28,7.76-10.55h-3.54c9.9,9.65,10.65,24.74,11.14,37.71.1,2.7,4.32,3.54,4.91.66,1.35-6.6,3.53-13.01,6.6-19.01,2.06-4.03,5.21-10.06,10.31-10.64,2.66-.3,5.15,1.36,7.01,3.09s3.36,3.96,4.47,6.33c2.32,4.96,2.84,10.62,2.62,16.03-.33,7.98-2.13,15.82-2.45,23.8-.13,3.22,4.87,3.21,5,0,.32-7.82,2.05-15.5,2.43-23.32.32-6.44-.49-12.96-3.2-18.86-2.55-5.55-7.65-11.26-14.03-12.01s-11.76,4.8-14.82,10.02c-4.18,7.14-7.09,15.14-8.75,23.23l4.91.66c-.55-14.35-1.69-30.6-12.61-41.25-.93-.9-2.63-1.02-3.54,0-11.09,12.44-17.86,28.29-19.41,44.86-.43,4.57-.42,9.17,0,13.74.13,1.34,1.06,2.5,2.5,2.5,1.25,0,2.63-1.15,2.5-2.5h0Z"/>
  <path class="cls-1" d="M403.28,16.65c-8.39,1.17-16.92,2.68-25.04,5.16-3.83,1.17-6.87,3.31-8.51,7.05s-2.46,7.62-3.21,11.48c-1.59,8.18-2.09,16.58-1.36,24.88.19,2.16.46,4.32.79,6.47.3,1.91.52,3.95,1.27,5.75s2.19,3.17,4.13,3.51c2.04.36,4.02-.21,6-.7,9.63-2.41,19.27-4.82,28.9-7.23,3.12-.78,1.8-5.6-1.33-4.82-7.87,1.97-15.73,3.94-23.6,5.91-1.93.48-3.85.96-5.78,1.45-.83.21-2.74,1.01-3.52.36-.35-.29-.43-1.11-.52-1.5-.2-.88-.35-1.77-.5-2.66-.31-1.78-.55-3.57-.73-5.36-.76-7.52-.56-15.19.7-22.65.61-3.63,1.44-7.25,2.54-10.76.43-1.36.93-2.82,1.85-3.94s2.14-1.71,3.42-2.15c3.99-1.37,8.24-2.2,12.36-3.07,4.46-.94,8.96-1.71,13.47-2.34,1.34-.19,2.07-1.89,1.75-3.08-.4-1.44-1.73-1.93-3.08-1.75h0Z"/>
  <path class="cls-1" d="M368.49,53.41c5.61-1.35,11.3-2.12,17.07-2.31,1.35-.04,2.5-1.12,2.5-2.5s-1.14-2.54-2.5-2.5c-6.19.2-12.37,1.03-18.39,2.48-1.31.32-2.1,1.8-1.75,3.08.37,1.34,1.76,2.06,3.08,1.75h0Z"/>
  <path class="cls-1" d="M422.14,14.8c.84,20.71,2.15,41.4,3.95,62.05.12,1.35,1.07,2.5,2.5,2.5,1.28,0,2.6-1.15,2.5-2.5-.8-10.82,2.08-21.67,8.27-30.6,1.41-2.04,3.04-4.09,5.23-5.33,1.79-1.01,4.22-1.38,5.95-.07,3.21,2.42,2.92,8.13,3.11,11.71.38,7.23.76,14.46,1.14,21.7.17,3.2,5.17,3.22,5,0-.38-7.23-.76-14.46-1.14-21.7-.27-5.06-.29-11.33-4.34-15.05-5.11-4.69-12.32-2.04-16.44,2.55s-7.13,10.4-9.14,16.24c-2.26,6.56-3.17,13.63-2.66,20.55h5c-1.79-20.65-3.11-41.34-3.95-62.05-.13-3.21-5.13-3.22-5,0h0Z"/>
</svg>