<?xml version="1.0" encoding="UTF-8"?>
<svg id="Calque_1" data-name="Calque 1" xmlns="http://www.w3.org/2000/svg" viewBox="0 0 107.61 85.89">
  <defs>
    <style>
      .cls-1 {
        fill: #000;
        stroke-width: 0px;
      }
    </style>
  </defs>
  <path class="cls-1" d="M5.41,7.43C3.43,28.85-3.65,50.68,2.39,72.09c.72,2.54,1.63,5.04,2.73,7.44s2.67,4.17,5.13,5.02,5.34.84,7.91.83c2.83-.01,5.66-.24,8.48-.45,11.38-.85,22.75-.78,34.13.04,5.66.41,11.33.89,17.01.91,2.87.01,5.74-.09,8.6-.39,2.39-.24,4.74-.59,6.96-1.55,4.88-2.12,6.29-6.87,7.45-11.64,1.31-5.41,2.64-10.82,3.93-16.23s2.51-11.1,2.83-16.78-.36-11.08-2.03-16.32c-.81-2.54-1.82-5.03-3.47-7.14-1.55-1.98-3.61-3.4-5.65-4.82-4.28-2.97-8.61-5.85-13.49-7.75-5.12-2-10.7-2.49-16.14-2.86C61.01.02,55.26-.07,49.51.05c-11.36.25-22.69,1.36-33.96,2.76-2.84.35-5.67.73-8.5,1.11-1.34.18-2.07,1.9-1.75,3.08.4,1.45,1.73,1.93,3.08,1.75,10.63-1.43,21.3-2.68,32.01-3.32s21.48-.78,32.09.48c4.96.59,9.55,2.07,13.89,4.54,2.07,1.19,4.06,2.51,6.03,3.86s3.9,2.52,5.43,4.23,2.28,3.89,2.94,5.98c.73,2.33,1.28,4.74,1.57,7.17.61,5.18.16,10.4-.8,15.51s-2.33,10.37-3.58,15.54c-.61,2.51-1.22,5.02-1.82,7.53-.51,2.12-.88,4.44-1.91,6.39-2.02,3.78-7.02,3.85-10.79,4.08-5.42.33-10.84.07-16.25-.3-10.82-.74-21.56-1.41-32.4-.98-5.3.21-10.59.83-15.89.92-2.26.04-4.97.22-7.13-.59-1.78-.66-2.46-2.99-3.09-4.61-7.43-19.27-1.85-40.18.81-59.8.36-2.65.68-5.3.92-7.95.12-1.35-1.24-2.5-2.5-2.5-1.46,0-2.38,1.15-2.5,2.5h0Z"/>
  <path class="cls-1" d="M29.64,27.14c-.27,7-.55,14.01-.82,21.01-.26,6.62-.37,13.39,1.71,19.77.99,3.05,5.82,1.74,4.82-1.33-1.99-6.12-1.76-12.55-1.51-18.9.27-6.85.54-13.7.8-20.55.13-3.22-4.87-3.21-5,0h0Z"/>
  <path class="cls-1" d="M15.34,25.89c11.16-.42,22.34-.65,33.51-.69,3.22-.01,3.22-5.01,0-5-11.17.04-22.34.27-33.51.69-3.21.12-3.22,5.12,0,5h0Z"/>
  <path class="cls-1" d="M82.89,26.31c-8.53-4.97-17.56,1.71-22.84,8.23-3.07,3.79-5.27,8.06-6.33,12.84-1,4.49-1.6,9.69.06,14.1,3.02,8.02,11.44,12.55,19.81,11.93s19.3-5.49,18.81-15.05c-.56-10.71-13.47-16.02-22.68-12.76-1.27.45-2.12,1.71-1.75,3.08.34,1.23,1.8,2.2,3.08,1.75,5.7-2.02,14.39.05,16.12,6.58,1.82,6.88-7.06,10.48-12.4,11.28-6.18.92-12.8-1.54-15.76-7.27-1.61-3.12-1.39-6.91-.84-10.28.61-3.76,1.8-7.33,3.89-10.52,3.46-5.29,11.29-13.67,18.32-9.58,2.79,1.62,5.31-2.7,2.52-4.32h0Z"/>
</svg>