<?xml version="1.0" encoding="UTF-8"?>
<svg id="Calque_1" data-name="Calque 1" xmlns="http://www.w3.org/2000/svg" viewBox="0 0 118.33 98.53">
  <defs>
    <style>
      .cls-1 {
        fill: #000;
        stroke-width: 0px;
      }
    </style>
  </defs>
  <path class="cls-1" d="M63.98,4.28C51.47.68,38.36.04,25.4,0c-3.1,0-6.2-.02-9.3.04-2.59.06-5.27.24-7.75,1.05S3.69,3.31,2.16,5.45C.47,7.82-.01,10.82,0,13.67c.01,3,.41,6.02.66,9.01.3,3.48.6,6.95.89,10.43.58,6.79,1.16,13.58,1.74,20.37s1.06,13.26,1.77,19.87,1.61,12.97,3.49,19.2c.41,1.35.93,2.71,1.91,3.75,1.18,1.25,2.8,1.75,4.46,1.94,3.2.36,6.52.23,9.73.26,6.78.07,13.57,0,20.35-.16,13.65-.34,27.29-1.11,40.92-2,6.67-.44,13.42-.67,20.07-1.4,2.9-.32,5.43-1.4,7.03-3.94,1.31-2.09,1.69-4.63,1.89-7.04.24-2.79.3-5.58.68-8.37.41-3.04.98-6.06,1.48-9.08,1.03-6.24,1.81-12.52.79-18.81s-4.39-11.99-7.44-17.56c-3.31-6.06-6.63-12.12-9.94-18.17-1.49-2.73-2.79-5.83-4.76-8.25-2.22-2.72-5.39-2.53-8.57-2.4-6.76.27-13.53.53-20.29.8-3.3.13-6.6.26-9.9.39s-3.22,5.13,0,5c6.43-.25,12.87-.5,19.3-.76,3.13-.12,6.27-.25,9.4-.37,1.5-.06,3-.18,4.5-.16,1.17.02,1.64.45,2.24,1.42,1.57,2.57,2.92,5.3,4.37,7.94,1.52,2.77,3.03,5.55,4.55,8.32,3.02,5.53,6.28,10.99,9,16.68,2.55,5.32,3.34,10.84,2.93,16.69s-1.69,11.32-2.48,16.99c-.4,2.89-.61,5.77-.79,8.68-.11,1.81-.26,3.89-1.2,5.4-1.13,1.83-3.71,1.68-5.77,1.82-3.22.23-6.44.45-9.66.67-25.5,1.75-51.07,3.26-76.64,2.51-.82-.02-2.11.1-2.71-.58-.7-.79-.87-2.39-1.13-3.36-.77-2.88-1.37-5.81-1.84-8.76-.98-6.03-1.44-12.14-1.96-18.23-1.09-12.75-2.18-25.5-3.27-38.25-.26-3.03-.6-6.07-.75-9.11-.11-2.26-.14-4.83,1.22-6.76,2.43-3.47,7.88-3.23,11.61-3.26,12.05-.08,24.23-.17,36.13,2.03,2.92.54,5.81,1.22,8.66,2.04,3.1.89,4.42-3.93,1.33-4.82h0Z"/>
  <path class="cls-1" d="M28.65,28.93c12.91,13.35,26.34,26.19,40.28,38.47,3.93,3.46,7.9,6.88,11.91,10.25,1.03.87,2.52,1.01,3.54,0,.89-.89,1.04-2.66,0-3.54-14.2-11.96-27.94-24.48-41.14-37.54-3.72-3.68-7.4-7.41-11.04-11.18-2.24-2.32-5.77,1.22-3.54,3.54h0Z"/>
  <path class="cls-1" d="M80.75,24.34c-4.07.67-6.78,4.26-9.31,7.17-2.97,3.42-5.89,6.89-8.75,10.4-5.76,7.07-11.29,14.33-16.58,21.75-2.99,4.2-5.9,8.46-8.73,12.76-1.77,2.7,2.55,5.2,4.32,2.52,9.55-14.51,19.98-28.41,31.29-41.6,1.52-1.77,3.02-3.56,4.61-5.27,1.28-1.38,2.58-2.61,4.49-2.92,1.33-.22,2.08-1.87,1.75-3.08-.39-1.42-1.74-1.97-3.08-1.75h0Z"/>
  <path class="cls-1" d="M40.2,26.57c16.09,9.9,27.56,25.3,40.99,38.26,3.9,3.76,7.99,7.31,12.35,10.54,1.09.8,2.79.18,3.42-.9.74-1.27.19-2.61-.9-3.42-15.14-11.22-26.27-26.8-40.39-39.14-4.06-3.55-8.35-6.83-12.94-9.66-2.75-1.69-5.26,2.63-2.52,4.32h0Z"/>
  <path class="cls-1" d="M31.08,27.66c3.16.07,6.33.12,9.49.14,1.31,0,2.56-1.16,2.5-2.5s-1.1-2.49-2.5-2.5c-3.16-.02-6.33-.07-9.49-.14-1.31-.03-2.56,1.17-2.5,2.5s1.1,2.47,2.5,2.5h0Z"/>
  <path class="cls-1" d="M95.3,71.14c-3.78-.23-7.56-.18-11.33.15-1.3.12-2.56,1.07-2.5,2.5.06,1.26,1.11,2.62,2.5,2.5,3.77-.34,7.55-.39,11.33-.15,1.31.08,2.56-1.21,2.5-2.5-.06-1.42-1.1-2.41-2.5-2.5h0Z"/>
</svg>